<svg width="67" height="71" viewBox="0 0 67 71" fill="none" xmlns="http://www.w3.org/2000/svg">
<path d="M66.61 22.75V22.41C66.61 10.05 56.56 0 44.2 0C40.25 0 36.53 1.03 33.31 2.83C30.09 1.03 26.37 0 22.41 0C10.05 0 0 10.05 0 22.41V31.11V39.46H8.73H21.78V48.15C21.78 53.07 23.38 57.63 26.08 61.33C24.91 61.66 23.68 61.83 22.41 61.83C14.86 61.83 8.73 55.7 8.73 48.15V47.81H0V48.15C0 60.51 10.05 70.56 22.41 70.56C26.36 70.56 30.08 69.53 33.31 67.73C36.53 69.53 40.25 70.56 44.2 70.56C56.56 70.56 66.61 60.51 66.61 48.15V47.81H57.88V48.15C57.88 55.7 51.74 61.83 44.2 61.83C42.92 61.83 41.69 61.66 40.52 61.33C37.61 60.52 35.08 58.77 33.3 56.42C31.55 54.12 30.51 51.26 30.51 48.15V39.46V31.11H21.78H8.73V22.41C8.73 14.87 14.86 8.73 22.41 8.73C23.68 8.73 24.91 8.9 26.08 9.23C23.38 12.93 21.78 17.48 21.78 22.41V22.75H30.51V22.41C30.51 19.31 31.55 16.44 33.3 14.14C35.08 11.8 37.61 10.04 40.52 9.23C41.69 8.9 42.92 8.73 44.2 8.73C51.74 8.73 57.88 14.87 57.88 22.41V22.75H66.61Z" fill="white"/>
</svg>
